<svg width="72" height="72" viewBox="0 0 72 72" fill="none" xmlns="http://www.w3.org/2000/svg">
<g clip-path="url(#clip0_25_831)">
<ellipse cx="35.7" cy="35.91" rx="35.7" ry="35.91" fill="#1C1C1C"/>
<path d="M35.6982 0C15.983 0 0 16.079 0 35.911C0 55.744 15.983 71.823 35.6982 71.823C55.4134 71.823 71.3964 55.744 71.3964 35.911C71.3964 16.08 55.4134 0 35.6982 0ZM69.0746 35.911C69.0746 54.454 54.1322 69.487 35.6982 69.487C17.2642 69.487 2.32175 54.454 2.32175 35.911C2.32175 17.369 17.2652 2.335 35.6982 2.335C54.1312 2.335 69.0746 17.369 69.0746 35.911V35.911Z" fill="white"/>
<path d="M52.9999 20.6747C53.4842 21.1987 54.1835 22.0437 54.576 22.5567L61.8046 17.9407C61.4436 17.4657 60.8676 16.7437 60.4386 16.2347L55.8602 19.2797L55.5475 19.5497L55.7803 19.2077L57.8022 15.1497L56.3721 13.7117L52.3361 15.7447L51.9968 15.9787L52.2671 15.6647L55.295 11.0617C54.7624 10.6057 54.2505 10.1877 53.5986 9.68166L49.0093 16.9467C49.5912 17.3967 50.3576 18.0567 50.8458 18.5067L55.1658 16.2517L55.442 16.0467L55.2388 16.3257L52.9999 20.6757V20.6747ZM36.5967 11.4667L38.5723 7.01666L38.6975 6.62166L38.662 7.03266L38.8692 12.9807C39.5625 13.0467 40.2786 13.1437 40.9838 13.2617L40.6623 4.45266C39.676 4.34266 38.6936 4.26466 37.7112 4.22266L35.7653 9.08066L35.6962 9.44166L35.6272 9.08166L33.6842 4.22266C32.7008 4.26466 31.7185 4.34266 30.7322 4.45266L30.4116 13.2627C31.1168 13.1427 31.8319 13.0487 32.5253 12.9807L32.7324 7.03266L32.6969 6.62166L32.8231 7.01566L34.7977 11.4667H36.5967ZM20.6216 18.4877C21.7637 17.2777 22.4098 15.8797 21.2686 14.5457C20.6472 13.8217 19.6037 13.6627 18.7387 14.0197L18.6529 14.0537L18.6806 13.9777C18.8088 13.6337 18.8906 12.5357 17.9606 11.7777C17.5069 11.4077 16.9387 11.2707 16.3627 11.3297C15.2906 11.4397 14.4661 12.1767 12.2203 14.6957C11.5417 15.4557 10.5554 16.6557 9.96362 17.4317L16.132 23.3187C18.1766 21.0427 19.01 20.1957 20.6216 18.4877V18.4877ZM12.5734 17.0477C13.8141 15.5187 15.1348 14.1317 15.7335 13.5827C15.9229 13.4097 16.128 13.2367 16.3775 13.1687C16.7829 13.0567 17.2011 13.3467 17.2948 13.7647C17.3895 14.1847 17.1271 14.5837 16.8352 14.9127C16.1783 15.6587 13.7688 18.1937 13.7688 18.1937L12.5724 17.0477H12.5734ZM14.9888 19.3537C14.9888 19.3537 17.3352 16.8577 18.1016 16.0597C18.4054 15.7427 18.6007 15.5497 18.8107 15.4467C19.081 15.3137 19.3769 15.2867 19.6422 15.4637C19.9016 15.6397 20.0219 15.9407 19.9568 16.2407C19.8789 16.5977 19.5889 16.9377 19.3503 17.1977L16.2395 20.5467L14.9888 19.3537V19.3537Z" fill="white"/>
<path d="M56.8681 35.9112H35.6982V14.6152C47.3977 14.6152 56.8681 24.1422 56.8681 35.9112ZM35.6982 35.9112V57.2072C23.9987 57.2072 14.5282 47.6802 14.5282 35.9112H35.6982Z" fill="white"/>
<path d="M35.6982 14.6152V35.9112H14.5282C14.5282 24.1422 23.9987 14.6152 35.6982 14.6152V14.6152ZM56.8681 35.9112C56.8681 47.6812 47.3977 57.2072 35.6982 57.2072V35.9112H56.8681Z" fill="#0066B1"/>
</g>
<defs>
<clipPath id="clip0_25_831">
<rect width="72" height="72" fill="white"/>
</clipPath>
</defs>
</svg>
