<svg width="32" height="32" viewBox="0 0 32 32" fill="none" xmlns="http://www.w3.org/2000/svg">
<path d="M21.0002 11H30.0002C30.5525 11 31.0002 10.5523 31.0002 10C31.0002 9.44772 30.5525 9 30.0002 9H21.0002C20.4479 9 20.0002 9.44772 20.0002 10C20.0002 10.5523 20.4479 11 21.0002 11Z" fill="#1C1C1C"/>
<path d="M21.0002 23H30.0002C30.5525 23 31.0002 22.5523 31.0002 22C31.0002 21.4477 30.5525 21 30.0002 21H21.0002C20.4479 21 20.0002 21.4477 20.0002 22C20.0002 22.5523 20.4479 23 21.0002 23Z" fill="#1C1C1C"/>
<path d="M21.0002 15H30.0002C30.5525 15 31.0002 14.5523 31.0002 14C31.0002 13.4477 30.5525 13 30.0002 13H21.0002C20.4479 13 20.0002 13.4477 20.0002 14C20.0002 14.5523 20.4479 15 21.0002 15Z" fill="#1C1C1C"/>
<path d="M21.0002 19H30.0002C30.5525 19 31.0002 18.5523 31.0002 18C31.0002 17.4477 30.5525 17 30.0002 17H21.0002C20.4479 17 20.0002 17.4477 20.0002 18C20.0002 18.5523 20.4479 19 21.0002 19Z" fill="#1C1C1C"/>
<path fill-rule="evenodd" clip-rule="evenodd" d="M16.0002 26H11.0002C11.0002 26 9.00201 26 7.15725 25.2322C7.15725 25.2322 5.31248 24.4644 3.90445 23.0466C3.90445 23.0466 2.49643 21.6288 1.74137 19.7787C1.74137 19.7787 0.986313 17.9287 1.00019 15.9306C1.00019 15.9306 1.01554 13.8986 1.82581 12.0466C1.82581 12.0466 2.6055 10.2645 4.01094 8.8923C4.01094 8.8923 5.41126 7.52507 7.217 6.77511C7.217 6.77511 9.08333 6 11.1127 6H16.0002C16.0002 6 16.8286 6 17.4144 6.58579C17.4144 6.58579 18.0002 7.17157 18.0002 8V24C18.0002 24 18.0002 24.8284 17.4144 25.4142C17.4144 25.4142 16.8286 26 16.0002 26ZM16.0002 24V8L11.1127 8C11.1127 8 7.78769 8 5.40814 10.3233C5.40814 10.3233 3.02503 12.6501 3.00014 15.9444C3.00014 15.9444 2.98904 17.543 3.59308 19.023C3.59308 19.023 4.19713 20.503 5.32355 21.6372C5.32355 21.6372 6.44998 22.7715 7.92579 23.3858C7.92579 23.3858 9.4016 24 11.0002 24H16.0002Z" fill="#1C1C1C"/>
</svg>
