<svg width="32" height="32" viewBox="0 0 32 32" fill="none" xmlns="http://www.w3.org/2000/svg">
<path d="M19.9999 10C19.9999 9.73478 20.1053 9.48043 20.2928 9.29289C20.4803 9.10536 20.7347 9 20.9999 9H29.9999C30.2651 9 30.5195 9.10536 30.707 9.29289C30.8945 9.48043 30.9999 9.73478 30.9999 10C30.9999 10.2652 30.8945 10.5196 30.707 10.7071C30.5195 10.8946 30.2651 11 29.9999 11H20.9999C20.7347 11 20.4803 10.8946 20.2928 10.7071C20.1053 10.5196 19.9999 10.2652 19.9999 10ZM29.9999 21H20.9999C20.7347 21 20.4803 21.1054 20.2928 21.2929C20.1053 21.4804 19.9999 21.7348 19.9999 22C19.9999 22.2652 20.1053 22.5196 20.2928 22.7071C20.4803 22.8946 20.7347 23 20.9999 23H29.9999C30.2651 23 30.5195 22.8946 30.707 22.7071C30.8945 22.5196 30.9999 22.2652 30.9999 22C30.9999 21.7348 30.8945 21.4804 30.707 21.2929C30.5195 21.1054 30.2651 21 29.9999 21ZM29.9999 13H20.9999C20.7347 13 20.4803 13.1054 20.2928 13.2929C20.1053 13.4804 19.9999 13.7348 19.9999 14C19.9999 14.2652 20.1053 14.5196 20.2928 14.7071C20.4803 14.8946 20.7347 15 20.9999 15H29.9999C30.2651 15 30.5195 14.8946 30.707 14.7071C30.8945 14.5196 30.9999 14.2652 30.9999 14C30.9999 13.7348 30.8945 13.4804 30.707 13.2929C30.5195 13.1054 30.2651 13 29.9999 13ZM29.9999 17H20.9999C20.7347 17 20.4803 17.1054 20.2928 17.2929C20.1053 17.4804 19.9999 17.7348 19.9999 18C19.9999 18.2652 20.1053 18.5196 20.2928 18.7071C20.4803 18.8946 20.7347 19 20.9999 19H29.9999C30.2651 19 30.5195 18.8946 30.707 18.7071C30.8945 18.5196 30.9999 18.2652 30.9999 18C30.9999 17.7348 30.8945 17.4804 30.707 17.2929C30.5195 17.1054 30.2651 17 29.9999 17ZM15.9999 6H11.1124C5.5749 6 1.0374 10.45 0.999895 15.925C0.988329 17.245 1.23854 18.5541 1.73606 19.7768C2.23358 20.9995 2.96854 22.1114 3.89845 23.0483C4.82835 23.9852 5.93475 24.7284 7.15368 25.2351C8.3726 25.7417 9.67987 26.0017 10.9999 26H15.9999C16.5303 26 17.039 25.7893 17.4141 25.4142C17.7892 25.0391 17.9999 24.5304 17.9999 24V8C17.9999 7.46957 17.7892 6.96086 17.4141 6.58579C17.039 6.21071 16.5303 6 15.9999 6Z" fill="#1C1C1C"/>
</svg>
