<svg width="32" height="32" viewBox="0 0 32 32" fill="none" xmlns="http://www.w3.org/2000/svg">
<path d="M13.8125 6.39945C13.5776 6.16042 13.2854 5.98552 12.9638 5.89143C12.6421 5.79734 12.3017 5.78719 11.975 5.86195C11.6454 5.93481 11.3395 6.08994 11.086 6.31288C10.8324 6.53582 10.6394 6.81931 10.525 7.13695L3.78752 25.6494C3.68245 25.9507 3.65053 26.2727 3.6944 26.5888C3.73827 26.9048 3.85666 27.2059 4.03981 27.4672C4.22296 27.7285 4.46562 27.9425 4.74777 28.0916C5.02991 28.2406 5.34345 28.3204 5.66252 28.3244C5.8963 28.3248 6.12855 28.2868 6.35002 28.2119L24.8625 21.4744C25.1802 21.36 25.4636 21.167 25.6866 20.9135C25.9095 20.66 26.0647 20.3541 26.1375 20.0244C26.2123 19.6978 26.2021 19.3574 26.108 19.0357C26.0139 18.7141 25.8391 18.4218 25.6 18.1869L13.8125 6.39945ZM7.97502 19.9744L10.375 13.3744L18.625 21.6244L12.025 24.0244L7.97502 19.9744Z" fill="#1C1C1C"/>
</svg>
