<svg width="32" height="32" viewBox="0 0 32 32" fill="none" xmlns="http://www.w3.org/2000/svg">
<path d="M4.43747 10.825L14.7 7.83749H14.7125L26.4375 4.41249C26.7361 4.32384 27.0514 4.30707 27.3577 4.36356C27.664 4.42004 27.9526 4.54817 28.2 4.73749C28.4506 4.92171 28.6538 5.16285 28.7929 5.44103C28.932 5.71922 29.0029 6.02648 29 6.33749V23.6625C29 24.1908 28.791 24.6976 28.4186 25.0723C28.0462 25.447 27.5407 25.6592 27.0125 25.6625C26.8183 25.663 26.625 25.6377 26.4375 25.5875L16 22.5375V24C16 24.5304 15.7893 25.0391 15.4142 25.4142C15.0391 25.7893 14.5304 26 14 26H9.99997C9.46954 26 8.96083 25.7893 8.58576 25.4142C8.21069 25.0391 7.99997 24.5304 7.99997 24V20.2125L4.43747 19.175C4.02273 19.0513 3.65891 18.7973 3.39996 18.4505C3.14101 18.1038 3.00075 17.6828 2.99997 17.25V12.75C3.00075 12.3172 3.14101 11.8962 3.39996 11.5494C3.65891 11.2027 4.02273 10.9486 4.43747 10.825ZM9.99997 24H14V21.9625L9.99997 20.7875V24ZM4.99997 17.25L9.29997 18.5L14 19.875V10.125L4.99997 12.75V17.25Z" fill="#1C1C1C"/>
</svg>
