<svg width="32" height="32" viewBox="0 0 32 32" fill="none" xmlns="http://www.w3.org/2000/svg">
<path d="M29.0375 14.2884L11.0375 3.30094C10.7377 3.11093 10.3914 3.00695 10.0365 3.00034C9.68161 2.99372 9.33171 3.08473 9.02501 3.26344C8.71377 3.43419 8.45432 3.68569 8.27394 3.99145C8.09356 4.29721 7.99893 4.64594 8.00001 5.00094V27.0009C7.99893 27.3559 8.09356 27.7047 8.27394 28.0104C8.45432 28.3162 8.71377 28.5677 9.02501 28.7384C9.33171 28.9171 9.68161 29.0081 10.0365 29.0015C10.3914 28.9949 10.7377 28.8909 11.0375 28.7009L29.0375 17.7134C29.3325 17.5355 29.5766 17.2843 29.746 16.9842C29.9154 16.6842 30.0044 16.3455 30.0044 16.0009C30.0044 15.6564 29.9154 15.3177 29.746 15.0176C29.5766 14.7176 29.3325 14.4664 29.0375 14.2884Z" fill="#1C1C1C"/>
</svg>
