<svg width="72" height="72" viewBox="0 0 72 72" fill="none" xmlns="http://www.w3.org/2000/svg">
<g clip-path="url(#clip0_4_212)">
<path d="M36.1171 0C16.402 0 0.418945 16.079 0.418945 35.911C0.418945 55.744 16.402 71.823 36.1171 71.823C55.8323 71.823 71.8153 55.744 71.8153 35.911C71.8153 16.08 55.8323 0 36.1171 0ZM69.4936 35.911C69.4936 54.454 54.5511 69.487 36.1171 69.487C17.6832 69.487 2.7407 54.454 2.7407 35.911C2.7407 17.369 17.6842 2.335 36.1171 2.335C54.5501 2.335 69.4936 17.369 69.4936 35.911V35.911Z" fill="white"/>
<path d="M53.4191 20.6751C53.9034 21.1991 54.6027 22.0441 54.9952 22.5571L62.2238 17.9411C61.8628 17.4661 61.2868 16.7441 60.8578 16.2351L56.2794 19.2801L55.9667 19.5501L56.1995 19.2081L58.2214 15.1501L56.7913 13.7121L52.7553 15.7451L52.416 15.9791L52.6863 15.6651L55.7142 11.0621C55.1816 10.6061 54.6697 10.1881 54.0178 9.68214L49.4285 16.9471C50.0104 17.3971 50.7768 18.0571 51.265 18.5071L55.585 16.2521L55.8612 16.0471L55.658 16.3261L53.4191 20.6761V20.6751ZM37.0159 11.4671L38.9915 7.01714L39.1167 6.62214L39.0812 7.03314L39.2883 12.9811C39.9817 13.0471 40.6978 13.1441 41.403 13.2621L41.0814 4.45314C40.0951 4.34314 39.1128 4.26514 38.1304 4.22314L36.1845 9.08114L36.1154 9.44214L36.0464 9.08214L34.1034 4.22314C33.12 4.26514 32.1377 4.34314 31.1514 4.45314L30.8308 13.2631C31.536 13.1431 32.2511 13.0491 32.9445 12.9811L33.1516 7.03314L33.1161 6.62214L33.2423 7.01614L35.2169 11.4671H37.0159ZM21.0408 18.4881C22.1829 17.2781 22.8289 15.8801 21.6878 14.5461C21.0664 13.8221 20.0229 13.6631 19.1579 14.0201L19.0721 14.0541L19.0997 13.9781C19.228 13.6341 19.3098 12.5361 18.3797 11.7781C17.926 11.4081 17.3579 11.2711 16.7819 11.3301C15.7098 11.4401 14.8853 12.1771 12.6395 14.6961C11.9609 15.4561 10.9746 16.6561 10.3828 17.4321L16.5511 23.3191C18.5957 21.0431 19.4292 20.1961 21.0408 18.4881V18.4881ZM12.9926 17.0481C14.2333 15.5191 15.554 14.1321 16.1527 13.5831C16.342 13.4101 16.5472 13.2371 16.7967 13.1691C17.2021 13.0571 17.6203 13.3471 17.714 13.7651C17.8087 14.1851 17.5463 14.5841 17.2544 14.9131C16.5975 15.6591 14.188 18.1941 14.188 18.1941L12.9916 17.0481H12.9926ZM15.408 19.3541C15.408 19.3541 17.7544 16.8581 18.5208 16.0601C18.8246 15.7431 19.0199 15.5501 19.2299 15.4471C19.5002 15.3141 19.7961 15.2871 20.0614 15.4641C20.3208 15.6401 20.4411 15.9411 20.376 16.2411C20.2981 16.5981 20.0081 16.9381 19.7694 17.1981L16.6586 20.5471L15.408 19.3541V19.3541Z" fill="white"/>
<path d="M57.2872 35.9112H36.1172V14.6152C47.8167 14.6152 57.2872 24.1422 57.2872 35.9112ZM36.1172 35.9112V57.2072C24.4177 57.2072 14.9473 47.6802 14.9473 35.9112H36.1172Z" fill="white"/>
<path d="M36.1172 14.6152V35.9112H14.9473C14.9473 24.1422 24.4177 14.6152 36.1172 14.6152V14.6152ZM57.2872 35.9112C57.2872 47.6812 47.8167 57.2072 36.1172 57.2072V35.9112H57.2872Z" fill="#0066B1"/>
</g>
<defs>
<clipPath id="clip0_4_212">
<rect width="72" height="72" fill="white"/>
</clipPath>
</defs>
</svg>
