<svg width="16" height="16" viewBox="0 0 16 16" fill="none" xmlns="http://www.w3.org/2000/svg">
<g clip-path="url(#clip0_25_839)">
<ellipse cx="7.93333" cy="7.98" rx="7.93333" ry="7.98" fill="#1C1C1C"/>
<path d="M7.93293 0C3.55178 0 0 3.57311 0 7.98022C0 12.3876 3.55178 15.9607 7.93293 15.9607C12.3141 15.9607 15.8659 12.3876 15.8659 7.98022C15.8659 3.57333 12.3141 0 7.93293 0ZM15.3499 7.98022C15.3499 12.1009 12.0294 15.4416 7.93293 15.4416C3.83649 15.4416 0.515945 12.1009 0.515945 7.98022C0.515945 3.85978 3.83671 0.518889 7.93293 0.518889C12.0292 0.518889 15.3499 3.85978 15.3499 7.98022V7.98022Z" fill="white"/>
<path d="M11.7777 4.59448C11.8853 4.71092 12.0407 4.8987 12.128 5.0127L13.7343 3.98692C13.6541 3.88137 13.5261 3.72092 13.4308 3.60781L12.4133 4.28448L12.3439 4.34448L12.3956 4.26848L12.8449 3.3667L12.5271 3.04714L11.6302 3.49892L11.5548 3.55092L11.6149 3.48114L12.2878 2.45825C12.1694 2.35692 12.0556 2.26403 11.9108 2.15159L10.8909 3.76603C11.0202 3.86603 11.1906 4.0127 11.299 4.1127L12.259 3.61159L12.3204 3.56603L12.2753 3.62803L11.7777 4.5947V4.59448ZM8.13258 2.54825L8.57159 1.55937L8.59943 1.47159L8.59154 1.56292L8.63756 2.8847C8.79165 2.89937 8.95077 2.92092 9.10748 2.94714L9.03603 0.989588C8.81685 0.965143 8.59855 0.94781 8.38025 0.938477L7.94781 2.01803L7.93247 2.09825L7.91713 2.01825L7.48534 0.938477C7.26682 0.94781 7.04852 0.965143 6.82934 0.989588L6.75811 2.94737C6.91482 2.9207 7.07373 2.89981 7.22781 2.8847L7.27384 1.56292L7.26595 1.47159L7.294 1.55914L7.7328 2.54825H8.13258ZM4.58255 4.10848C4.83636 3.83959 4.97992 3.52892 4.72633 3.23248C4.58825 3.07159 4.35636 3.03625 4.16414 3.11559L4.14507 3.12314L4.15121 3.10625C4.1797 3.02981 4.19789 2.78581 3.99121 2.61737C3.89039 2.53514 3.76414 2.5047 3.63614 2.51781C3.39789 2.54225 3.21466 2.70603 2.71559 3.26581C2.5648 3.4347 2.34562 3.70137 2.21411 3.87381L3.58485 5.18203C4.03921 4.67625 4.22441 4.48803 4.58255 4.10848V4.10848ZM2.79406 3.78848C3.06978 3.4487 3.36326 3.14048 3.4963 3.01848C3.53839 2.98003 3.58397 2.94159 3.63943 2.92648C3.72951 2.90159 3.82244 2.96603 3.84326 3.05892C3.8643 3.15225 3.806 3.24092 3.74113 3.31403C3.59515 3.47981 3.0597 4.04314 3.0597 4.04314L2.79384 3.78848H2.79406ZM3.33082 4.30092C3.33082 4.30092 3.85225 3.74625 4.02255 3.56892C4.09006 3.49848 4.13345 3.45559 4.18014 3.4327C4.24019 3.40314 4.30595 3.39714 4.36491 3.43648C4.42255 3.47559 4.44929 3.54248 4.43482 3.60914C4.41751 3.68848 4.35307 3.76403 4.30003 3.82181L3.60874 4.56603L3.33082 4.30092V4.30092Z" fill="white"/>
<path d="M12.6374 7.98049H7.93295V3.24805C10.5328 3.24805 12.6374 5.36516 12.6374 7.98049ZM7.93295 7.98049V12.7129C5.33306 12.7129 3.22852 10.5958 3.22852 7.98049H7.93295Z" fill="white"/>
<path d="M7.93295 3.24805V7.98049H3.22852C3.22852 5.36516 5.33306 3.24805 7.93295 3.24805V3.24805ZM12.6374 7.98049C12.6374 10.596 10.5328 12.7129 7.93295 12.7129V7.98049H12.6374Z" fill="#0066B1"/>
</g>
<defs>
<clipPath id="clip0_25_839">
<rect width="16" height="16" fill="white"/>
</clipPath>
</defs>
</svg>
