<svg width="32" height="32" viewBox="0 0 32 32" fill="none" xmlns="http://www.w3.org/2000/svg">
<path d="M23.3379 7.4502L23.2504 7.3127C23.2061 7.25176 23.1489 7.20134 23.0828 7.16504C23.0168 7.12874 22.9436 7.10744 22.8684 7.10266C22.7932 7.09789 22.7179 7.10976 22.6478 7.13742C22.5777 7.16508 22.5146 7.20785 22.4629 7.2627L17.9379 12.3002L20.1879 13.1752C20.4064 13.2612 20.5881 13.4204 20.7021 13.6256C20.8162 13.8308 20.8553 14.0693 20.8129 14.3002L19.9129 18.9377C19.8669 19.1661 19.7435 19.3716 19.5637 19.5196C19.3838 19.6676 19.1584 19.749 18.9254 19.7502H18.7379C18.4763 19.6874 18.2488 19.5267 18.1022 19.3011C17.9557 19.0755 17.9014 18.8022 17.9504 18.5377L18.6879 14.7502L15.8629 13.6627C15.7134 13.6017 15.5801 13.5067 15.4738 13.3852C15.3675 13.2637 15.291 13.119 15.2504 12.9627C15.2135 12.8056 15.2146 12.642 15.2538 12.4854C15.2929 12.3289 15.3689 12.1839 15.4754 12.0627L21.3004 5.5752C21.3867 5.48075 21.4334 5.35684 21.4311 5.22896C21.4288 5.10107 21.3775 4.97895 21.2879 4.8877C19.5254 3.0502 17.6629 2.0127 16.0004 2.0127C13.6879 2.0127 10.9379 4.0502 8.66291 7.4627C6.38791 10.8752 5.16291 14.6627 5.01291 18.3127C4.75041 24.6252 9.70041 30.0127 16.0254 30.0002C18.9374 29.9903 21.727 28.8274 23.7838 26.7659C25.8406 24.7044 26.9971 21.9122 27.0004 19.0002C27.0004 15.1502 25.6629 10.9377 23.3379 7.4502Z" fill="#1C1C1C"/>
</svg>
